inDegrees=yes
name=ik_S47_A10_T02
DataType=double
version=3
OpenSimVersion=4.3-2021-08-27-4bc7ad9
endheader
time	pelvis_tilt	pelvis_list	pelvis_rotation	pelvis_tx	pelvis_ty	pelvis_tz	hip_flexion_r	hip_adduction_r	hip_rotation_r	knee_angle_r	knee_angle_r_beta	ankle_angle_r	subtalar_angle_r	mtp_angle_r	hip_flexion_l	hip_adduction_l	hip_rotation_l	knee_angle_l	knee_angle_l_beta	ankle_angle_l	subtalar_angle_l	mtp_angle_l	lumbar_extension	lumbar_bending	lumbar_rotation	arm_flex_r	arm_add_r	arm_rot_r	elbow_flex_r	pro_sup_r	wrist_flex_r	wrist_dev_r	arm_flex_l	arm_add_l	arm_rot_l	elbow_flex_l	pro_sup_l	wrist_flex_l	wrist_dev_l
9.659999999999883	-3.316468717357473	0.4080423712279173	22.89773587725893	0	0.9399999999999999	0	44.36421108904663	-9.999615688275046	-9.994325414859782	53.79270779820408	0.9388598646418905	0	0	0	44.36421108904663	-9.999615688275046	-9.994325414859782	53.79270779820408	0.9388598646418905	0	0	0	-2.427024299517102	-0.228589776701181	5.217906215552435	80.68782451206445	8.622951762115829	14.70077603184741	35.83071380425559	20.42560213975778	0	0	86.34322563827365	6.402701735763298	23.24825504799457	22.39564858881759	30.20835427415783	0	0
9.679999999999882	-3.166262917541862	0.5765610648200383	22.91712846661882	0	0.9399999999999999	0	44.37193538827097	-9.999626841736944	-9.994447129318438	53.80561909781063	0.9390852093307365	0	0	0	44.37193538827097	-9.999626841736944	-9.994447129318438	53.80561909781063	0.9390852093307365	0	0	0	-2.238252617536144	-0.09919170177284227	5.18465345198836	84.92745256863797	8.885274439000558	12.15286465961649	35.27286175614864	20.81817438243734	0	0	90.41143973092736	5.174593136955741	26.32328151973508	24.46355162181687	27.03487140796077	0	0
9.699999999999882	-3.103013078988332	0.6556884701418817	22.93750341502544	0	0.9399999999999999	0	44.37656791644623	-9.999633250898118	-9.994518492746591	53.8134041051423	0.939221083340966	0	0	0	44.37656791644623	-9.999633250898118	-9.994518492746591	53.8134041051423	0.939221083340966	0	0	0	-2.148213833061128	-0.03996932289500742	5.125930940462036	85.01496697242008	8.330181433820439	11.91522304812642	37.38512726195702	21.94020136069942	0	0	93.56459344541852	4.372403122693786	28.50537787148313	23.43296505561301	24.11518142917877	0	0
9.719999999999882	-2.953742693030741	0.8823166236303492	22.98894500462021	0	0.9399999999999999	0	44.37871269038862	-9.999636705606498	-9.994554519529455	53.81679269000029	0.9392802253037211	0	0	0	44.37871269038862	-9.999636705606498	-9.994554519529455	53.81679269000029	0.9392802253037211	0	0	0	-1.912671451310347	0.10829643062638	5.139596488465789	91.69789742476672	8.850808942157881	11.7391665618254	32.44951020043503	21.04424714307329	0	0	96.08711767746344	4.117895374151414	28.40586617731177	21.49343743830252	23.05037697195182	0	0
9.739999999999881	-2.949064502160752	0.8867262242878353	23.01660539227945	0	0.9399999999999999	0	44.38054357939799	-9.999639400061911	-9.994583799551464	53.81973744206198	0.9393316209228524	0	0	0	44.38054357939799	-9.999639400061911	-9.994583799551464	53.81973744206198	0.9393316209228524	0	0	0	-1.904366687607514	0.1117862118130477	5.113828976026968	94.40417458643221	9.038034615558702	11.23544172313843	30.71517322048021	19.96517091692243	0	0	96.44595098291042	3.671193095384665	28.19043918246154	21.66996018703336	23.56289235919247	0	0
9.759999999999881	-2.826432184592416	0.9461457902370297	23.0462862996619	0	0.9399999999999999	0	44.38975604762435	-9.99965198034092	-9.994725027773498	53.83504477614925	0.9395987843023781	0	0	0	44.38975604762435	-9.99965198034092	-9.994725027773498	53.83504477614925	0.9395987843023781	0	0	0	-1.770978944527049	0.1249027739410616	5.16209403808303	96.32663231553289	9.293861146905188	10.58607878373988	30.2483684794441	17.29775775486384	0	0	99.50216497830293	4.66537074164899	22.42206247650465	18.27055767393982	28.45815590412579	0	0
9.77999999999988	-2.80406765356269	0.9429219861323168	23.05112218883853	0	0.9399999999999999	0	44.3909238415067	-9.999654058257569	-9.994745867259841	53.8367971083599	0.9396293682690428	0	0	0	44.3909238415067	-9.999654058257569	-9.994745867259841	53.8367971083599	0.9396293682690428	0	0	0	-1.749232608082374	0.1196905789784111	5.147335762523523	99.08198480328151	9.763409440316911	11.28951954068612	28.93686655701059	12.95052038352293	0	0	102.5099361799825	5.045813098263037	19.47238371176728	14.96015866807488	33.33195930232666	0	0
9.79999999999988	-2.796354791672655	0.8793312636300866	23.08651850075435	0	0.9399999999999999	0	44.39116298390746	-9.999654530806174	-9.994750477165509	53.83710412284373	0.9396347266826368	0	0	0	44.39116298390746	-9.999654530806174	-9.994750477165509	53.83710412284373	0.9396347266826368	0	0	0	-1.764437954150305	0.06170783921194899	5.021658354589944	99.96539182088205	10.04343631290847	12.01402830206967	28.20294959097735	12.71828662409005	0	0	104.0447951665859	5.052963530154652	21.40205397262332	13.61380732772948	31.96767416854474	0	0
9.819999999999879	-2.782450742958908	0.8717633738274865	23.29674391809853	0	0.9399999999999999	0	44.39146591753322	-9.99965513007294	-9.994756322193158	53.83749225701695	0.939641500901899	0	0	0	44.39146591753322	-9.99965513007294	-9.994756322193158	53.83749225701695	0.939641500901899	0	0	0	-1.75530889245642	0.05977518221964605	4.837264898502328	100.5285277262629	10.32014744400913	12.8064452869	27.49290402415474	12.84872597485457	0	0	105.2552962985043	4.850487616486881	23.53262794097339	12.46650282377253	30.29346140784805	0	0
9.839999999999879	-2.855061789152581	0.799674254988331	23.42983315005762	0	0.9399999999999999	0	44.39186889421943	-9.999655920425464	-9.994764058165629	53.8380111582068	0.9396505574361543	0	0	0	44.39186889421943	-9.999655920425464	-9.994764058165629	53.8380111582068	0.9396505574361543	0	0	0	-1.849372561187936	0.02876209798992629	4.676028942569241	101.1532591996825	10.68309562681908	13.53743304407324	26.86815343046118	13.05543695298038	0	0	105.7462403272079	4.946678975235767	25.03976679969219	11.86990138754221	28.96666348280625	0	0
9.859999999999879	-2.999153918214926	0.684351770649228	23.5267426369397	0	0.9399999999999999	0	44.39210678170274	-9.999656383457443	-9.994768600904219	53.83832004281007	0.9396559484894903	0	0	0	44.39210678170274	-9.999656383457443	-9.994768600904219	53.83832004281007	0.9396559484894903	0	0	0	-2.025857852121685	-0.0136235351197064	4.513958838013445	101.9702130407769	11.22096015992067	14.07958766288236	26.24347428175469	12.81863398932283	0	0	106.3811652824484	5.164185666346989	26.03823760924526	11.31210983618684	27.83567912485287	0	0
9.879999999999878	-3.0465888560261	0.6270755236044965	23.45660645055458	0	0.9399999999999999	0	44.39234385272502	-9.999656851406302	-9.994773171261803	53.8386235055008	0.9396612449126004	0	0	0	44.39234385272502	-9.999656851406302	-9.994773171261803	53.8386235055008	0.9396612449126004	0	0	0	-2.092912418023242	-0.04860714192638044	4.569820407056755	102.0975744893722	11.23687935027594	14.02604108523781	26.07263458475163	13.09810159937751	0	0	106.8044838050596	5.526429537315596	25.63113780364769	10.78152711875455	27.90474209057329	0	0
9.899999999999878	-3.153301335976601	0.5181599699177535	23.38431461679982	0	0.9399999999999999	0	44.3926407431693	-9.99965743596087	-9.994778886370039	53.83900410060437	0.9396678875502746	0	0	0	44.3926407431693	-9.99965743596087	-9.994778886370039	53.83900410060437	0.9396678875502746	0	0	0	-2.235292569369445	-0.107376478734022	4.596726629079607	102.8800141869164	11.87918933943389	14.23333636337306	25.37062768785788	13.0119503094466	0	0	107.404318776699	5.991306906628182	24.38998773429923	10.23158674052095	28.87908679746332	0	0
9.919999999999877	-3.264117377083965	0.3962127154133319	23.47707142962905	0	0.9399999999999999	0	44.39292434458459	-9.999657993614878	-9.994784341934825	53.83936777270269	0.9396742348257879	0	0	0	44.39292434458459	-9.999657993614878	-9.994784341934825	53.83936777270269	0.9396742348257879	0	0	0	-2.384550364640742	-0.1705027780671667	4.477506854299401	103.591053892277	12.5021140285479	13.97641070100912	24.76318332489943	13.50795364066339	0	0	107.6742289350548	6.022980905412715	24.51017311507805	10.22703368154076	28.5142625135881	0	0
9.939999999999877	-3.397097706737981	0.2595634817435244	23.38849568653692	0	0.9399999999999999	0	44.39318362474777	-9.999658500131522	-9.994789308864334	53.83970206821809	0.9396800693832064	0	0	0	44.39318362474777	-9.999658500131522	-9.994789308864334	53.83970206821809	0.9396800693832064	0	0	0	-2.56201230967425	-0.2443176420439802	4.514626124049301	104.2319338654946	13.20563829678081	13.57549664293983	24.34285908485421	14.11320250113485	0	0	108.3809030072227	6.576867002507908	23.3719312699145	9.680799531170923	29.37192980346371	0	0
9.959999999999877	-3.659686117183652	-0.06176551173111471	23.39062454245219	0	0.9399999999999999	0	44.39347737073233	-9.999659074549822	-9.9947949408705	53.84008007599347	0.9396866668634849	0	0	0	44.39347737073233	-9.999659074549822	-9.9947949408705	53.84008007599347	0.9396866668634849	0	0	0	-2.931016594356441	-0.4314504641384522	4.477942550619392	105.1837094996214	13.87172121924069	13.24150971754805	24.03898147821041	14.51762154380818	0	0	109.371026294383	7.103146260312515	22.88408593764184	9.202469128467145	30.18884593103512	0	0
9.979999999999876	-3.768516771249705	-0.1869497241716838	23.43722383328988	0	0.9399999999999999	0	44.393642688593	-9.999659396414044	-9.994798101749787	53.84029355433067	0.9396903927633508	0	0	0	44.393642688593	-9.999659396414044	-9.994798101749787	53.84029355433067	0.9396903927633508	0	0	0	-3.080420628619682	-0.5024019511313892	4.472373886701216	105.5799651693961	14.37578967555841	13.52943431241808	23.85485399057671	14.40612549086743	0	0	109.7397599824549	7.540495722427787	22.5804088080848	8.984077483763903	30.56682205553877	0	0
9.999999999999876	-3.809381362894344	-0.2391387328961626	23.53844548539785	0	0.9399999999999999	0	44.3938520915156	-9.999659804408747	-9.994802107995771	53.84056360447086	0.9396951060274424	0	0	0	44.3938520915156	-9.999659804408747	-9.994802107995771	53.84056360447086	0.9396951060274424	0	0	0	-3.138131910935383	-0.5282337665594514	4.38318964391044	105.6712726153876	15.26136463495258	14.40516181369316	23.97861200674785	13.67869582891131	0	0	109.690566754714	8.048079620577413	22.60333835477091	8.868148236881641	30.37140327307979	0	0
10.01999999999988	-3.958875784035565	-0.4295796130628365	23.47398648953056	0	0.9399999999999999	0	44.39403500639803	-9.999660160271638	-9.994805604569382	53.84079965621403	0.9396992259075658	0	0	0	44.39403500639803	-9.999660160271638	-9.994805604569382	53.84079965621403	0.9396992259075658	0	0	0	-3.349312029537145	-0.652716465144269	4.548669851137132	106.1212620453222	15.51979154345125	14.27329648435931	24.19730790963183	13.16099823921995	0	0	109.4067028677445	9.378971545746449	23.34971681100514	8.954589762422712	29.89081582864814	0	0
10.03999999999987	-3.992418256699553	-0.4706967585347018	23.52290598393821	0	0.9399999999999999	0	44.39426681505055	-9.999660612825794	-9.99481004665398	53.84109761012012	0.9397044261842463	0	0	0	44.39426681505055	-9.999660612825794	-9.99481004665398	53.84109761012012	0.9397044261842463	0	0	0	-3.397141227491011	-0.675634206135552	4.532037519909345	106.2819157864537	15.913470636528	13.86135414747952	24.25704690443725	12.86396838067295	0	0	108.9992998269568	9.941113319831864	23.76872215919931	9.05870438658005	29.63865941261732	0	0
10.05999999999987	-4.035892435214653	-0.5469644265905623	23.60922302884815	0	0.9399999999999999	0	44.39447488240146	-9.999661018684025	-9.994814032198446	53.84136504414769	0.9397090937885593	0	0	0	44.39447488240146	-9.999661018684025	-9.994814032198446	53.84136504414769	0.9397090937885593	0	0	0	-3.467773506788851	-0.7314057551352796	4.586914790331805	106.4324854264508	16.11348720474928	13.23587596604183	24.15013394215019	13.18700771910186	0	0	108.4455023496197	10.72439725153296	24.26274604616091	9.065467941270576	29.82640699610413	0	0
10.07999999999987	-4.068250072167936	-0.5933421050480446	23.68580407875003	0	0.9399999999999999	0	44.39470184856138	-9.999661461744825	-9.994818382665978	53.84165632262584	0.9397141775570431	0	0	0	44.39470184856138	-9.999661461744825	-9.994818382665978	53.84165632262584	0.9397141775570431	0	0	0	-3.516199502474287	-0.7636119121157128	4.634056117258876	106.3747743220021	16.2983459194526	12.73079008506309	24.09909097982501	13.42251894181789	0	0	107.7808804753294	11.37298935699181	24.78936249014454	9.191661771160602	29.79244628338754	0	0
